<svg width="120" height="24" viewBox="0 0 120 24" fill="none"
    xmlns="http://www.w3.org/2000/svg">
    <g clip-path="url(#clip0_8702_3212)">
        <path d="M36.0547 18.7496V6.1499H38.3582V16.5897H43.9427V18.7496H36.0547Z" fill="black" fill-opacity="0.87"/>
        <path d="M48.9163 19.0016C48.0553 19.0016 47.2816 18.8216 46.5952 18.4616C45.9088 18.1017 45.3678 17.5797 44.9722 16.8957C44.5767 16.2117 44.3789 15.3897 44.3789 14.4297V14.1417C44.3789 13.1817 44.5767 12.3598 44.9722 11.6758C45.3678 10.9918 45.9088 10.4698 46.5952 10.1098C47.2816 9.74983 48.0553 9.56982 48.9163 9.56982C49.7772 9.56982 50.5509 9.74983 51.2373 10.1098C51.9237 10.4698 52.4647 10.9918 52.8603 11.6758C53.2558 12.3598 53.4536 13.1817 53.4536 14.1417V14.4297C53.4536 15.3897 53.2558 16.2117 52.8603 16.8957C52.4647 17.5797 51.9237 18.1017 51.2373 18.4616C50.5509 18.8216 49.7772 19.0016 48.9163 19.0016ZM48.9163 16.9857C49.591 16.9857 50.1495 16.7636 50.5916 16.3197C51.0337 15.8637 51.2548 15.2157 51.2548 14.3757V14.1957C51.2548 13.3557 51.0337 12.7137 50.5916 12.2697C50.1611 11.8138 49.6027 11.5857 48.9163 11.5857C48.2415 11.5857 47.683 11.8138 47.2409 12.2697C46.7988 12.7137 46.5778 13.3557 46.5778 14.1957V14.3757C46.5778 15.2157 46.7988 15.8637 47.2409 16.3197C47.683 16.7636 48.2415 16.9857 48.9163 16.9857Z" fill="black" fill-opacity="0.87"/>
        <path d="M54.2791 14.3217V14.0337C54.2791 13.0977 54.4594 12.2997 54.82 11.6397C55.1807 10.9678 55.6577 10.4578 56.251 10.1098C56.856 9.74983 57.5134 9.56982 58.2231 9.56982C59.0142 9.56982 59.6133 9.71378 60.0205 10.0018C60.4278 10.2898 60.7244 10.5898 60.9105 10.9017H61.2247V9.82177H63.3887V20.3336C63.3887 20.9456 63.2142 21.4315 62.8651 21.7916C62.5161 22.1636 62.0508 22.3495 61.469 22.3495H55.6752V20.3696H60.7011C61.0269 20.3696 61.1898 20.1896 61.1898 19.8296V17.5077H60.8757C60.7594 17.6997 60.5964 17.8976 60.387 18.1017C60.1776 18.2936 59.8984 18.4557 59.5494 18.5876C59.2003 18.7196 58.7583 18.7857 58.2231 18.7857C57.5134 18.7857 56.856 18.6116 56.251 18.2637C55.6577 17.9036 55.1807 17.3936 54.82 16.7336C54.4594 16.0617 54.2791 15.2577 54.2791 14.3217ZM58.8513 16.8056C59.5261 16.8056 60.0904 16.5836 60.5441 16.1397C60.9979 15.6957 61.2247 15.0717 61.2247 14.2677V14.0877C61.2247 13.2717 60.9979 12.6477 60.5441 12.2157C60.102 11.7718 59.5377 11.5498 58.8513 11.5498C58.1765 11.5498 57.6123 11.7718 57.1585 12.2157C56.7048 12.6477 56.4779 13.2717 56.4779 14.0877V14.2677C56.4779 15.0717 56.7048 15.6957 57.1585 16.1397C57.6123 16.5836 58.1765 16.8056 58.8513 16.8056Z" fill="black" fill-opacity="0.87"/>
        <path d="M69.1597 19.0016C68.2988 19.0016 67.5251 18.8216 66.8386 18.4616C66.1522 18.1017 65.6113 17.5797 65.2157 16.8957C64.8202 16.2117 64.6223 15.3897 64.6223 14.4297V14.1417C64.6223 13.1817 64.8202 12.3598 65.2157 11.6758C65.6113 10.9918 66.1522 10.4698 66.8386 10.1098C67.5251 9.74983 68.2988 9.56982 69.1597 9.56982C70.0207 9.56982 70.7943 9.74983 71.4808 10.1098C72.1672 10.4698 72.7081 10.9918 73.1038 11.6758C73.4993 12.3598 73.6971 13.1817 73.6971 14.1417V14.4297C73.6971 15.3897 73.4993 16.2117 73.1038 16.8957C72.7081 17.5797 72.1672 18.1017 71.4808 18.4616C70.7943 18.8216 70.0207 19.0016 69.1597 19.0016ZM69.1597 16.9857C69.8345 16.9857 70.393 16.7636 70.835 16.3197C71.2771 15.8637 71.4982 15.2157 71.4982 14.3757V14.1957C71.4982 13.3557 71.2771 12.7137 70.835 12.2697C70.4046 11.8138 69.8461 11.5857 69.1597 11.5857C68.4849 11.5857 67.9265 11.8138 67.4844 12.2697C67.0423 12.7137 66.8212 13.3557 66.8212 14.1957V14.3757C66.8212 15.2157 67.0423 15.8637 67.4844 16.3197C67.9265 16.7636 68.4849 16.9857 69.1597 16.9857Z" fill="black" fill-opacity="0.87"/>
        <path d="M74.9415 18.7497V9.82185H77.1406V18.7497H74.9415ZM76.0411 8.77793C75.6451 8.77793 75.3084 8.64588 75.0286 8.38186C74.7612 8.11792 74.6274 7.7699 74.6274 7.33792C74.6274 6.90593 74.7612 6.55794 75.0286 6.29394C75.3084 6.02995 75.6451 5.89795 76.0411 5.89795C76.4484 5.89795 76.7859 6.02995 77.0529 6.29394C77.3206 6.55794 77.4549 6.90593 77.4549 7.33792C77.4549 7.7699 77.3206 8.11792 77.0529 8.38186C76.7859 8.64588 76.4484 8.77793 76.0411 8.77793Z" fill="black" fill-opacity="0.87"/>
        <path d="M78.792 22.3495V9.82177H80.9557V10.9017H81.27C81.4672 10.5538 81.7755 10.2478 82.1947 9.98376C82.6132 9.70783 83.2125 9.56982 83.9925 9.56982C84.69 9.56982 85.3357 9.74983 85.929 10.1098C86.523 10.4578 87 10.9738 87.36 11.6577C87.7207 12.3417 87.9015 13.1697 87.9015 14.1417V14.4297C87.9015 15.4017 87.7207 16.2297 87.36 16.9136C87 17.5976 86.523 18.1196 85.929 18.4796C85.3357 18.8276 84.69 19.0016 83.9925 19.0016C83.469 19.0016 83.0265 18.9356 82.6657 18.8036C82.317 18.6836 82.032 18.5276 81.8107 18.3356C81.6015 18.1316 81.4327 17.9276 81.3045 17.7236H80.9902V22.3495H78.792ZM83.3287 17.0216C84.0157 17.0216 84.5797 16.7997 85.0215 16.3557C85.4752 15.8996 85.7025 15.2397 85.7025 14.3757V14.1957C85.7025 13.3317 85.4752 12.6778 85.0215 12.2337C84.5677 11.7777 84.0037 11.5498 83.3287 11.5498C82.6545 11.5498 82.0897 11.7777 81.636 12.2337C81.1822 12.6778 80.9557 13.3317 80.9557 14.1957V14.3757C80.9557 15.2397 81.1822 15.8996 81.636 16.3557C82.0897 16.7997 82.6545 17.0216 83.3287 17.0216Z" fill="black" fill-opacity="0.87"/>
        <path d="M92.73 19.0016C91.6012 19.0016 90.6765 18.7496 89.955 18.2456C89.2342 17.7417 88.7977 17.0216 88.6462 16.0857L90.6705 15.5457C90.7522 15.9657 90.8857 16.2956 91.0725 16.5357C91.2697 16.7756 91.5082 16.9497 91.788 17.0577C92.0782 17.1537 92.3925 17.2016 92.73 17.2016C93.2422 17.2016 93.6202 17.1117 93.864 16.9317C94.1085 16.7397 94.2307 16.5057 94.2307 16.2297C94.2307 15.9536 94.1145 15.7437 93.882 15.5997C93.6487 15.4437 93.2767 15.3177 92.7652 15.2217L92.2762 15.1317C91.671 15.0117 91.119 14.8497 90.6187 14.6457C90.1177 14.4297 89.7165 14.1357 89.4142 13.7637C89.112 13.3918 88.9605 12.9118 88.9605 12.3238C88.9605 11.4357 89.2747 10.7578 89.9032 10.2898C90.531 9.80978 91.3575 9.56982 92.3812 9.56982C93.3465 9.56982 94.1497 9.79176 94.7895 10.2358C95.4292 10.6798 95.8477 11.2618 96.0457 11.9818L94.0042 12.6297C93.9112 12.1738 93.7192 11.8497 93.4282 11.6577C93.1485 11.4657 92.7997 11.3697 92.3812 11.3697C91.962 11.3697 91.6425 11.4478 91.4212 11.6038C91.2 11.7478 91.0897 11.9518 91.0897 12.2157C91.0897 12.5037 91.206 12.7198 91.4385 12.8637C91.671 12.9957 91.9852 13.0977 92.3812 13.1697L92.8695 13.2597C93.5212 13.3797 94.1085 13.5418 94.632 13.7457C95.1675 13.9377 95.586 14.2197 95.889 14.5917C96.2025 14.9517 96.36 15.4437 96.36 16.0677C96.36 17.0037 96.0285 17.7297 95.3655 18.2456C94.7137 18.7496 93.8355 19.0016 92.73 19.0016Z" fill="black" fill-opacity="0.87"/>
        <path d="M100.8 18.8936C100.125 18.8936 99.5316 18.7376 99.0194 18.4256C98.5191 18.1017 98.1299 17.6577 97.8501 17.0936C97.5711 16.5296 97.4316 15.8817 97.4316 15.1497V9.82178H99.6306V14.9697C99.6306 15.6417 99.7874 16.1456 100.102 16.4817C100.427 16.8176 100.887 16.9857 101.48 16.9857C102.155 16.9857 102.679 16.7577 103.051 16.3017C103.423 15.8337 103.609 15.1857 103.609 14.3577V9.82178H105.808V18.7496H103.644V17.5797H103.33C103.191 17.8797 102.928 18.1736 102.545 18.4616C102.161 18.7496 101.579 18.8936 100.8 18.8936Z" fill="black" fill-opacity="0.87"/>
        <path d="M107.47 18.7495V9.82169H109.633V10.7937H109.948C110.099 10.4937 110.35 10.2357 110.698 10.0197C111.047 9.79168 111.507 9.67773 112.077 9.67773C112.693 9.67773 113.188 9.80375 113.56 10.0557C113.932 10.2957 114.217 10.6137 114.415 11.0097H114.73C114.928 10.6257 115.207 10.3077 115.567 10.0557C115.928 9.80375 116.44 9.67773 117.103 9.67773C117.638 9.67773 118.121 9.79771 118.552 10.0377C118.993 10.2657 119.343 10.6197 119.599 11.0997C119.866 11.5677 120 12.1616 120 12.8817V18.7495H117.801V13.0437C117.801 12.5517 117.679 12.1857 117.435 11.9457C117.19 11.6937 116.847 11.5677 116.405 11.5677C115.905 11.5677 115.515 11.7356 115.236 12.0717C114.968 12.3956 114.835 12.8636 114.835 13.4756V18.7495H112.636V13.0437C112.636 12.5517 112.513 12.1857 112.269 11.9457C112.024 11.6937 111.682 11.5677 111.239 11.5677C110.739 11.5677 110.349 11.7356 110.07 12.0717C109.802 12.3956 109.669 12.8636 109.669 13.4756V18.7495H107.47Z" fill="black" fill-opacity="0.87"/>
        <path d="M29.0857 12C29.0857 8.81744 27.8599 5.76516 25.678 3.51472C23.4961 1.26429 20.5368 4.17348e-07 17.4512 0C14.3655 -4.17347e-07 11.4062 1.26429 9.22434 3.51472C7.04243 5.76516 5.81665 8.81744 5.81665 12H9.45249C10.6573 12 11.5969 10.9587 12.0382 9.80234C12.3279 9.04317 12.7676 8.3455 13.3377 7.75736C14.4287 6.63215 15.9083 6.00001 17.4512 6.00001C18.994 6.00001 20.4737 6.63215 21.5646 7.75736C22.6556 8.88258 23.2684 10.4087 23.2684 12H29.0857Z" fill="url(#paint0_linear_8702_3212)"/>
        <path d="M22.3833 16.5922C22.968 15.1363 23.269 13.5758 23.269 12H29.0856C29.0856 18.6274 23.8766 24 17.4511 24C16.4448 24 15.4683 23.8682 14.5371 23.6205C15.064 23.4805 15.5819 23.3022 16.0868 23.0865C17.4983 22.4835 18.7809 21.5996 19.8613 20.4853C20.9417 19.371 21.7987 18.0481 22.3833 16.5922Z" fill="#FBCF8E"/>
        <path d="M0 12C-2.18575e-07 13.5759 0.300935 15.1363 0.885623 16.5923C1.47031 18.0482 2.3273 19.371 3.40767 20.4854C4.48803 21.5996 5.77061 22.4835 7.18217 23.0866C8.59373 23.6897 10.1066 24 11.6345 24C13.1623 24 14.6753 23.6897 16.0868 23.0866C17.4984 22.4835 18.781 21.5996 19.8614 20.4854C20.9417 19.371 21.7987 18.0482 22.3834 16.5923C22.9681 15.1363 23.2691 13.5759 23.2691 12H19.6332C18.4284 12 17.4888 13.0414 17.0475 14.1976C17.035 14.2306 17.0221 14.2634 17.0089 14.2962C16.7166 15.0241 16.2881 15.6856 15.7479 16.2427C15.2078 16.7998 14.5664 17.2418 13.8607 17.5433C13.1549 17.8449 12.3985 18.0001 11.6345 18.0001C10.8706 18.0001 10.1141 17.8449 9.40837 17.5433C8.70255 17.2418 8.0613 16.7998 7.52108 16.2427C6.9809 15.6856 6.55241 15.0241 6.26007 14.2962C5.96772 13.5682 5.81726 12.788 5.81726 12H0Z" fill="url(#paint1_linear_8702_3212)"/>
        <path d="M0.0012207 12C0.0012207 5.37257 5.21015 0 11.6357 0C12.6417 0 13.6179 0.131696 14.5491 0.379295C12.5511 0.91015 10.7081 1.98446 9.22436 3.51473C7.04247 5.76515 5.81671 8.81744 5.81671 12H0.0012207Z" fill="#73E5E2"/>
    </g>
    <defs>
        <linearGradient id="paint0_linear_8702_3212" x1="29.0857" y1="6.00001" x2="5.81665" y2="6.00001" gradientUnits="userSpaceOnUse">
            <stop stop-color="#73E5E2"/>
            <stop offset="1" stop-color="#394F87"/>
        </linearGradient>
        <linearGradient id="paint1_linear_8702_3212" x1="7.6284e-07" y1="18.0001" x2="23.2691" y2="18.0001" gradientUnits="userSpaceOnUse">
            <stop stop-color="#FBDC8E"/>
            <stop offset="1" stop-color="#FB958E"/>
        </linearGradient>
        <clipPath id="clip0_8702_3212">
            <rect width="120" height="24" fill="white"/>
        </clipPath>
    </defs>
</svg>
